<?xml version="1.0" encoding="utf-8"?>
<!-- Generator: Adobe Illustrator 25.1.0, SVG Export Plug-In . SVG Version: 6.00 Build 0)  -->
<svg version="1.1" id="Layer_1" xmlns="http://www.w3.org/2000/svg" xmlns:xlink="http://www.w3.org/1999/xlink" x="0px" y="0px"
	 viewBox="0 0 797.8 403.4" style="enable-background:new 0 0 797.8 403.4;" xml:space="preserve">
<style type="text/css">
	.st0{fill:#FFFFFF;}
</style>
<g>
	<g>
		<g>
			<path class="st0" d="M189.6,81.8C189.6,17.7,134.5,0,79.6,0C73.5,0,68,0,63,0H17.7H0v244.3h63v-82.5c6.7,0,15.1,0,25.5,0
				l54.5,82.5h74.5l-71.1-93.8C169.9,139.3,189.6,118.4,189.6,81.8z M81,122.1c-7.3,0-13.2,0-18,0v-82c5.7,0,11.7,0,16.9,0
				c16.1,0,46.9,6,46.9,36.8S113.2,122.1,81,122.1z"/>
			<path class="st0" d="M291.7,46c-56,0-101.4,45.4-101.4,101.4s45.4,101.4,101.4,101.4s101.4-45.4,101.4-101.4S347.7,46,291.7,46z
				 M291.7,200.7c-19.8,0-35.9-23.9-35.9-53.3c0-29.4,16.1-53.3,35.9-53.3c19.8,0,35.9,23.9,35.9,53.3
				C327.6,176.8,311.5,200.7,291.7,200.7z"/>
			<polygon class="st0" points="466.4,128.5 466.4,55.2 403.4,55.2 403.4,244.3 466.4,244.3 466.4,164.9 543.8,244.3 627.6,244.3
				527.4,147.4 612.9,55.2 538.4,55.2 			"/>
			<path class="st0" d="M734.8,55.2V171c0,12.3-14.2,25.9-34.4,25.9c-20.2,0-24.5-12-24.5-22.1c0-1.7,0-2.9,0-3.8v-1.9V55.2h-63
				v86.6V171c0,15.3-0.3,76.6,80.5,76.6c34.4,0,51.7-15.4,60.2-33.1l32.9,29.7h11.3V171V55.2H734.8z"/>
		</g>
	</g>
	<g>
		<path class="st0" d="M24.5,305.4v25.8h53.1V355H24.5v46.3H0V281.7h84.8v23.8H24.5z"/>
		<path class="st0" d="M102.9,401.4V281.7h24.2v119.7H102.9z"/>
		<path class="st0" d="M199.8,401.4v-10c-3,3.6-6.5,6.4-10.7,8.6c-4.1,2.1-9.2,3.2-15.1,3.2c-4,0-7.8-0.6-11.4-1.8
			c-3.6-1.2-6.7-3-9.3-5.5c-2.7-2.4-4.7-5.4-6.3-8.9c-1.5-3.5-2.3-7.6-2.3-12.2v-0.3c0-5.1,0.8-9.5,2.5-13.1
			c1.7-3.7,4.1-6.7,7.1-9.2c3-2.4,6.6-4.2,10.8-5.5c4.2-1.2,8.8-1.8,13.9-1.8c4.3,0,8.1,0.3,11.4,1c3.2,0.7,6.4,1.6,9.5,2.8V347
			c0-5.5-1.5-9.7-4.6-12.6c-3.1-2.9-7.6-4.3-13.7-4.3c-4.7,0-8.8,0.4-12.3,1.3c-3.6,0.9-7.3,2.1-11.2,3.7l-6-20.1
			c4.7-2.2,9.5-4,14.6-5.4c5.1-1.4,11.2-2.1,18.5-2.1c13.3,0,22.9,3.5,28.9,10.6c6,7,9.1,16.8,9.1,29.4v53.8H199.8z M200.3,364
			c-2.1-1-4.5-1.9-7.1-2.5c-2.6-0.6-5.4-1-8.4-1c-5.2,0-9.3,1.1-12.2,3.3c-3,2.2-4.5,5.4-4.5,9.5v0.3c0,3.6,1.2,6.3,3.7,8.3
			c2.4,2,5.6,2.9,9.5,2.9c5.7,0,10.3-1.5,13.8-4.5c3.4-3,5.2-6.9,5.2-11.8V364z"/>
		<path class="st0" d="M304,386.6c-1.6,3.7-4,6.8-6.9,9.3c-3,2.4-6.4,4.2-10.4,5.5c-4,1.2-8.2,1.8-12.8,1.8c-6,0-12.2-1.1-18.5-3.4
			c-6.3-2.2-12.3-5.8-18.1-10.6l10.3-17.3c4.7,3.7,9.3,6.5,13.9,8.3c4.6,1.8,8.9,2.8,13,2.8c3.5,0,6.1-0.6,7.7-1.9
			c1.6-1.3,2.5-2.9,2.5-5v-0.3c0-1.4-0.5-2.6-1.4-3.6c-1-1-2.3-1.9-3.9-2.7c-1.6-0.7-3.5-1.5-5.6-2.2c-2.1-0.7-4.3-1.4-6.7-2.2
			c-3-0.9-6-2-9-3.4c-3-1.3-5.8-3.1-8.2-5.2c-2.4-2.1-4.4-4.8-6-7.9c-1.5-3.1-2.3-6.9-2.3-11.4v-0.3c0-4.7,0.8-8.9,2.5-12.5
			c1.6-3.6,3.9-6.7,6.7-9.3c2.8-2.5,6.1-4.4,9.9-5.7c3.8-1.3,7.8-1.9,12.2-1.9c5.4,0,10.9,1,16.5,2.9c5.6,1.9,10.7,4.5,15.3,7.9
			l-9.2,18.2c-4.2-2.7-8.4-4.8-12.4-6.3c-4-1.6-7.6-2.3-10.7-2.3c-3,0-5.2,0.6-6.7,1.8c-1.5,1.2-2.2,2.7-2.2,4.6v0.3
			c0,1.3,0.5,2.4,1.4,3.4c1,1,2.2,1.9,3.8,2.8c1.6,0.9,3.4,1.7,5.5,2.5c2.1,0.8,4.3,1.6,6.6,2.4c3,1,6,2.3,9.1,3.7
			c3.1,1.4,5.8,3.2,8.3,5.3c2.4,2.1,4.5,4.6,6,7.6c1.6,3,2.4,6.6,2.4,10.9v0.3C306.5,378.3,305.7,382.8,304,386.6z"/>
		<path class="st0" d="M377.8,401.4v-51.6c0-6.2-1.3-10.9-3.8-14.1c-2.5-3.2-6.2-4.7-10.8-4.7c-4.7,0-8.4,1.6-11.1,4.7
			c-2.7,3.2-4.1,7.9-4.1,14.1v51.6h-24.2V281.7H348v40.2c1.4-2,2.9-3.9,4.5-5.7c1.6-1.8,3.5-3.4,5.5-4.8c2-1.4,4.2-2.5,6.7-3.3
			c2.4-0.8,5.2-1.2,8.3-1.2c9.2,0,16.4,3.1,21.4,9.2c5,6.1,7.6,14.5,7.6,25.3v60H377.8z"/>
		<path class="st0" d="M509.2,375.7c-2.2,5.9-5,11-8.6,15.1c-3.6,4.1-7.7,7.2-12.3,9.3c-4.7,2.1-9.5,3.1-14.6,3.1
			c-6.5,0-11.8-1.4-16-4.1c-4.2-2.7-7.7-6-10.6-9.6v12h-24.2V281.7h24.2v40.2c3-4.3,6.5-7.9,10.7-10.7c4.2-2.8,9.5-4.2,15.8-4.2
			c5,0,9.8,1,14.5,3.1c4.7,2.1,8.8,5.2,12.4,9.3c3.6,4.1,6.5,9.1,8.7,15.1c2.2,5.9,3.3,12.8,3.3,20.5v0.3
			C512.5,362.9,511.4,369.7,509.2,375.7z M488.3,354.8c0-3.8-0.6-7.3-1.7-10.5c-1.1-3.2-2.6-5.9-4.5-8.2c-1.9-2.3-4.1-4-6.6-5.2
			c-2.5-1.2-5.2-1.8-8-1.8c-2.9,0-5.5,0.6-8,1.8c-2.5,1.2-4.7,3-6.5,5.2c-1.9,2.3-3.3,5-4.5,8.2c-1.1,3.2-1.7,6.7-1.7,10.5v0.3
			c0,3.8,0.6,7.3,1.7,10.5c1.1,3.2,2.6,5.9,4.5,8.2c1.9,2.3,4,4,6.5,5.2c2.5,1.2,5.2,1.8,8,1.8c2.9,0,5.5-0.6,8-1.8
			c2.5-1.2,4.7-3,6.6-5.2c1.9-2.3,3.4-5,4.5-8.1c1.1-3.1,1.7-6.7,1.7-10.6V354.8z"/>
		<path class="st0" d="M580.2,401.4v-10c-3,3.6-6.5,6.4-10.7,8.6c-4.1,2.1-9.2,3.2-15.1,3.2c-4,0-7.8-0.6-11.4-1.8
			c-3.6-1.2-6.7-3-9.3-5.5c-2.7-2.4-4.7-5.4-6.3-8.9c-1.5-3.5-2.3-7.6-2.3-12.2v-0.3c0-5.1,0.8-9.5,2.5-13.1
			c1.7-3.7,4.1-6.7,7.1-9.2c3-2.4,6.6-4.2,10.8-5.5c4.2-1.2,8.8-1.8,13.9-1.8c4.3,0,8.1,0.3,11.4,1c3.2,0.7,6.4,1.6,9.5,2.8V347
			c0-5.5-1.5-9.7-4.6-12.6c-3.1-2.9-7.6-4.3-13.7-4.3c-4.7,0-8.8,0.4-12.3,1.3c-3.6,0.9-7.3,2.1-11.2,3.7l-6-20.1
			c4.7-2.2,9.5-4,14.6-5.4c5.1-1.4,11.2-2.1,18.5-2.1c13.3,0,22.9,3.5,28.9,10.6c6,7,9.1,16.8,9.1,29.4v53.8H580.2z M580.7,364
			c-2.1-1-4.5-1.9-7.1-2.5c-2.6-0.6-5.4-1-8.4-1c-5.2,0-9.3,1.1-12.2,3.3c-3,2.2-4.5,5.4-4.5,9.5v0.3c0,3.6,1.2,6.3,3.7,8.3
			c2.4,2,5.6,2.9,9.5,2.9c5.7,0,10.3-1.5,13.8-4.5c3.4-3,5.2-6.9,5.2-11.8V364z"/>
		<path class="st0" d="M685.4,398.7c-5.3,3.2-12.2,4.8-20.7,4.8c-6.4,0-12.3-1.3-17.7-3.8c-5.5-2.5-10.2-6-14.1-10.3
			c-3.9-4.3-7-9.4-9.2-15.2c-2.2-5.8-3.3-12-3.3-18.6v-0.3c0-6.6,1.1-12.8,3.3-18.7c2.2-5.9,5.3-11,9.2-15.4
			c3.9-4.4,8.6-7.8,14.1-10.4c5.5-2.5,11.5-3.8,18.1-3.8c8.1,0,14.7,1.4,20,4.2c5.3,2.8,10,6.6,14,11.4l-14.8,17.3
			c-2.8-3.1-5.6-5.6-8.5-7.4c-2.9-1.8-6.5-2.8-10.9-2.8c-3.1,0-5.9,0.7-8.4,2c-2.5,1.3-4.7,3.1-6.5,5.5c-1.9,2.3-3.3,5-4.3,8
			c-1,3.1-1.5,6.3-1.5,9.8v0.3c0,3.6,0.5,6.9,1.5,10c1,3.1,2.5,5.8,4.4,8.1c1.9,2.3,4.2,4.1,6.8,5.5c2.6,1.3,5.6,2,8.9,2
			c4,0,7.6-0.9,10.6-2.7c3-1.8,6-4.2,9-7.2l14.2,15.6C695.4,391.4,690.7,395.5,685.4,398.7z"/>
		<path class="st0" d="M770.2,401.4l-22.3-37.9l-8.4,9.7v28.2h-24.2V281.7h24.2v60.7l28.3-33.7h28.9l-32.4,36.5l33.6,56.2H770.2z"/>
	</g>
</g>
</svg>
