<?xml version="1.0" encoding="utf-8"?>
<!-- Generator: Adobe Illustrator 25.1.0, SVG Export Plug-In . SVG Version: 6.00 Build 0)  -->
<svg version="1.1" id="Layer_1" xmlns="http://www.w3.org/2000/svg" xmlns:xlink="http://www.w3.org/1999/xlink" x="0px" y="0px"
	 viewBox="0 0 1883.9 218.4" style="enable-background:new 0 0 1883.9 218.4;" xml:space="preserve">
<style type="text/css">
	.st0{fill:#FFFFFF;}
</style>
<g>
	<g>
		<g>
			<path class="st0" d="M165.7,71.5c0-56-48.2-71.5-96.1-71.5c-5.4,0-10.2,0-14.5,0H15.5H0v213.5h55.1v-72.1c5.8,0,13.2,0,22.3,0
				l47.6,72.1H190l-62.1-82C148.5,121.7,165.7,103.5,165.7,71.5z M70.8,106.7c-6.4,0-11.5,0-15.7,0V35c5,0,10.2,0,14.8,0
				c14.1,0,41,5.2,41,32.2S98.9,106.7,70.8,106.7z"/>
			<path class="st0" d="M255,40.2c-48.9,0-88.6,39.7-88.6,88.6s39.7,88.6,88.6,88.6s88.6-39.7,88.6-88.6S303.9,40.2,255,40.2z
				 M255,175.4c-17.3,0-31.3-20.9-31.3-46.6c0-25.7,14-46.6,31.3-46.6c17.3,0,31.3,20.9,31.3,46.6
				C286.3,154.5,272.3,175.4,255,175.4z"/>
			<polygon class="st0" points="407.6,112.3 407.6,48.3 352.6,48.3 352.6,213.5 407.6,213.5 407.6,144.1 475.2,213.5 548.5,213.5
				460.9,128.8 535.7,48.3 470.6,48.3 			"/>
			<path class="st0" d="M642.2,48.3v101.2c0,10.7-12.4,22.6-30,22.6s-21.5-10.5-21.5-19.3c0-1.5,0-2.6,0-3.3v-1.7V48.3h-55.1V124
				v25.5c0,13.3-0.2,67,70.3,67c30.1,0,45.2-13.5,52.6-28.9l28.8,26h9.9v-64V48.3H642.2z"/>
		</g>
	</g>
	<g>
		<path class="st0" d="M816.5,81.1v35.6h73.3v32.8h-73.3v64h-33.8V48.3h117v32.8H816.5z"/>
		<path class="st0" d="M924.7,213.5V48.3H958v165.2H924.7z"/>
		<path class="st0" d="M1058.4,213.5v-13.9c-4.1,4.9-9,8.9-14.7,11.8c-5.7,2.9-12.7,4.4-20.9,4.4c-5.6,0-10.8-0.8-15.7-2.5
			c-4.9-1.7-9.2-4.2-12.8-7.5c-3.7-3.3-6.6-7.4-8.7-12.3c-2.1-4.9-3.2-10.5-3.2-16.8v-0.5c0-7,1.2-13.1,3.5-18.1
			c2.3-5.1,5.6-9.3,9.8-12.7c4.2-3.3,9.1-5.8,14.9-7.5c5.8-1.7,12.2-2.5,19.2-2.5c6,0,11.2,0.5,15.7,1.4c4.5,1,8.8,2.2,13.1,3.8
			v-2.1c0-7.6-2.1-13.5-6.4-17.4c-4.2-4-10.5-6-18.9-6c-6.4,0-12.1,0.6-17,1.8c-4.9,1.2-10.1,2.9-15.5,5.1l-8.3-27.7
			c6.4-3,13.2-5.5,20.2-7.4c7-1.9,15.5-2.9,25.5-2.9c18.3,0,31.6,4.9,40,14.6c8.3,9.7,12.5,23.2,12.5,40.6v74.3H1058.4z M1059,161.9
			c-2.9-1.4-6.2-2.6-9.8-3.5c-3.6-0.9-7.4-1.3-11.5-1.3c-7.2,0-12.8,1.5-16.9,4.5c-4.1,3-6.1,7.4-6.1,13.1v0.5c0,4.9,1.7,8.8,5,11.5
			c3.4,2.7,7.8,4.1,13.2,4.1c7.9,0,14.2-2.1,19-6.2c4.8-4.1,7.1-9.6,7.1-16.2V161.9z"/>
		<path class="st0" d="M1202.3,193.1c-2.3,5.2-5.5,9.4-9.5,12.8c-4.1,3.3-8.9,5.8-14.4,7.5c-5.5,1.7-11.4,2.5-17.7,2.5
			c-8.3,0-16.9-1.6-25.6-4.7c-8.7-3.1-17-8-24.9-14.7l14.3-23.9c6.4,5.1,12.8,8.9,19.2,11.5c6.4,2.5,12.3,3.8,17.9,3.8
			c4.8,0,8.4-0.9,10.6-2.6c2.3-1.8,3.4-4.1,3.4-6.9v-0.5c0-1.9-0.7-3.6-2-5c-1.3-1.4-3.1-2.7-5.4-3.7c-2.3-1-4.9-2-7.8-3
			c-2.9-1-6-2-9.2-3.1c-4.1-1.3-8.2-2.8-12.4-4.7c-4.2-1.8-7.9-4.2-11.3-7.2c-3.4-2.9-6.1-6.6-8.2-10.9c-2.1-4.3-3.2-9.6-3.2-15.8
			v-0.5c0-6.5,1.1-12.3,3.4-17.3c2.3-5,5.3-9.3,9.2-12.8c3.9-3.5,8.4-6.1,13.6-7.9c5.2-1.8,10.8-2.6,16.8-2.6c7.5,0,15,1.3,22.7,3.9
			c7.7,2.6,14.7,6.2,21.2,10.9l-12.7,25.1c-5.9-3.7-11.6-6.6-17.1-8.7c-5.6-2.1-10.5-3.2-14.7-3.2c-4.1,0-7.2,0.8-9.2,2.5
			c-2.1,1.7-3.1,3.8-3.1,6.3v0.5c0,1.8,0.7,3.3,2,4.7c1.3,1.4,3.1,2.6,5.3,3.8c2.2,1.2,4.7,2.4,7.6,3.5c2.9,1.1,5.9,2.2,9.1,3.3
			c4.1,1.4,8.3,3.1,12.5,5.1c4.2,2,8,4.4,11.4,7.3c3.4,2.9,6.1,6.4,8.3,10.5c2.2,4.1,3.3,9.2,3.3,15v0.5
			C1205.7,181.7,1204.5,187.9,1202.3,193.1z"/>
		<path class="st0" d="M1304,213.5v-71.2c0-8.6-1.8-15-5.3-19.4c-3.5-4.4-8.5-6.6-14.9-6.6c-6.4,0-11.5,2.2-15.3,6.6
			c-3.7,4.4-5.6,10.8-5.6,19.4v71.2h-33.4V48.3h33.4v55.5c1.9-2.7,4-5.3,6.3-7.8c2.3-2.5,4.8-4.7,7.6-6.6c2.8-1.9,5.9-3.4,9.2-4.6
			c3.4-1.1,7.2-1.7,11.4-1.7c12.7,0,22.6,4.2,29.5,12.7c6.9,8.4,10.4,20.1,10.4,34.9v82.9H1304z"/>
		<path class="st0" d="M1485.4,178c-3,8.2-7,15.1-11.9,20.8c-4.9,5.7-10.6,9.9-17,12.8c-6.4,2.9-13.2,4.3-20.2,4.3
			c-8.9,0-16.3-1.9-22.1-5.7c-5.8-3.8-10.6-8.2-14.6-13.3v16.6h-33.4V48.3h33.4v55.4c4.1-6,9-10.9,14.8-14.8
			c5.8-3.9,13.1-5.8,21.8-5.8c6.9,0,13.5,1.4,20,4.3c6.4,2.9,12.1,7.1,17.1,12.8c5,5.7,9,12.6,12,20.8c3,8.2,4.5,17.6,4.5,28.3v0.5
			C1489.9,160.4,1488.4,169.8,1485.4,178z M1456.6,149.2c0-5.3-0.8-10.1-2.3-14.5s-3.6-8.2-6.3-11.3c-2.6-3.1-5.7-5.5-9.1-7.2
			c-3.4-1.7-7.1-2.5-11.1-2.5s-7.6,0.8-11.1,2.5c-3.4,1.7-6.4,4.1-9,7.2c-2.6,3.1-4.6,6.9-6.1,11.3c-1.5,4.4-2.3,9.3-2.3,14.5v0.5
			c0,5.3,0.8,10.1,2.3,14.5c1.5,4.4,3.6,8.2,6.1,11.3c2.6,3.1,5.6,5.5,9,7.2c3.4,1.7,7.1,2.5,11.1,2.5s7.6-0.8,11.1-2.5
			c3.4-1.7,6.5-4.1,9.1-7.2c2.6-3.1,4.7-6.9,6.3-11.2c1.5-4.3,2.3-9.2,2.3-14.7V149.2z"/>
		<path class="st0" d="M1583.5,213.5v-13.9c-4.1,4.9-9,8.9-14.7,11.8c-5.7,2.9-12.7,4.4-20.9,4.4c-5.6,0-10.8-0.8-15.7-2.5
			c-4.9-1.7-9.2-4.2-12.8-7.5c-3.7-3.3-6.6-7.4-8.7-12.3c-2.1-4.9-3.2-10.5-3.2-16.8v-0.5c0-7,1.2-13.1,3.5-18.1
			c2.3-5.1,5.6-9.3,9.8-12.7c4.2-3.3,9.1-5.8,14.9-7.5c5.8-1.7,12.2-2.5,19.2-2.5c6,0,11.2,0.5,15.7,1.4c4.5,1,8.8,2.2,13.1,3.8
			v-2.1c0-7.6-2.1-13.5-6.4-17.4c-4.2-4-10.5-6-18.9-6c-6.4,0-12.1,0.6-17,1.8c-4.9,1.2-10.1,2.9-15.5,5.1l-8.3-27.7
			c6.4-3,13.2-5.5,20.2-7.4c7-1.9,15.5-2.9,25.5-2.9c18.3,0,31.6,4.9,40,14.6c8.3,9.7,12.5,23.2,12.5,40.6v74.3H1583.5z
			 M1584.1,161.9c-2.9-1.4-6.2-2.6-9.8-3.5c-3.6-0.9-7.4-1.3-11.5-1.3c-7.2,0-12.8,1.5-16.9,4.5c-4.1,3-6.1,7.4-6.1,13.1v0.5
			c0,4.9,1.7,8.8,5.1,11.5c3.4,2.7,7.8,4.1,13.2,4.1c7.9,0,14.2-2.1,19-6.2c4.8-4.1,7.1-9.6,7.1-16.2V161.9z"/>
		<path class="st0" d="M1728.6,209.8c-7.3,4.4-16.8,6.6-28.5,6.6c-8.8,0-16.9-1.8-24.5-5.3c-7.5-3.5-14-8.2-19.4-14.2
			c-5.4-6-9.7-13-12.7-21c-3.1-8-4.6-16.6-4.6-25.7v-0.5c0-9.1,1.5-17.7,4.6-25.8c3.1-8.1,7.3-15.2,12.7-21.3
			c5.4-6,11.9-10.8,19.4-14.3c7.5-3.5,15.8-5.3,24.9-5.3c11.1,0,20.3,1.9,27.7,5.7c7.3,3.8,13.8,9.1,19.3,15.8l-20.4,23.9
			c-3.8-4.3-7.7-7.7-11.7-10.3c-4-2.5-9-3.8-15-3.8c-4.2,0-8.1,0.9-11.5,2.7c-3.4,1.8-6.4,4.3-9,7.5c-2.6,3.2-4.5,6.9-5.9,11.1
			c-1.4,4.2-2.1,8.7-2.1,13.5v0.5c0,4.9,0.7,9.6,2.1,13.9c1.4,4.3,3.4,8,6,11.2c2.6,3.2,5.8,5.7,9.4,7.5c3.7,1.8,7.8,2.7,12.3,2.7
			c5.6,0,10.4-1.2,14.6-3.7c4.2-2.5,8.3-5.8,12.4-9.9l19.5,21.5C1742.4,199.8,1735.9,205.4,1728.6,209.8z"/>
		<path class="st0" d="M1845.6,213.5l-30.7-52.3l-11.6,13.4v38.9h-33.4V48.3h33.4V132l39.1-46.6h40l-44.8,50.4l46.3,77.6H1845.6z"/>
	</g>
</g>
</svg>
