<?xml version="1.0" encoding="utf-8"?>
<!-- Generator: Adobe Illustrator 25.1.0, SVG Export Plug-In . SVG Version: 6.00 Build 0)  -->
<svg version="1.1" id="Layer_1" xmlns="http://www.w3.org/2000/svg" xmlns:xlink="http://www.w3.org/1999/xlink" x="0px" y="0px"
	 viewBox="0 0 1000 1000" style="enable-background:new 0 0 1000 1000;" xml:space="preserve">
<style type="text/css">
	.st0{fill:#FFFFFF;}
</style>
<g id="PLUS-2" transform="translate(-145.375 439.673)">
	<path id="Path_71" class="st0" d="M645.4-408.1c-258.7,0-468.5,209.7-468.5,468.5s209.7,468.5,468.5,468.5s468.5-209.7,468.5-468.5
		S904.1-408.1,645.4-408.1z M645.4,476.4c-229.8,0-416.1-186.3-416.1-416.1c0-229.8,186.3-416.1,416.1-416.1
		s416.1,186.3,416.1,416.1C1061.5,290.1,875.2,476.4,645.4,476.4z"/>
	<path id="Path_72" class="st0" d="M858.3,31.7H673.9v-184.4c0-15.8-12.9-28.6-28.7-28.6c-15.8,0-28.6,12.8-28.6,28.6V31.7H432.2
		c-15.8,0-28.6,12.8-28.7,28.6l0,0c0,15.8,12.9,28.6,28.7,28.6h184.4v184.4c0,15.8,12.8,28.6,28.6,28.6c15.8,0,28.6-12.8,28.7-28.6
		V88.9h184.4c15.8,0,28.6-12.8,28.7-28.6l0,0C886.9,44.5,874.1,31.7,858.3,31.7z"/>
</g>
</svg>
