<?xml version="1.0" encoding="utf-8"?>
<!-- Generator: Adobe Illustrator 25.1.0, SVG Export Plug-In . SVG Version: 6.00 Build 0)  -->
<svg version="1.1" id="Layer_1" xmlns="http://www.w3.org/2000/svg" xmlns:xlink="http://www.w3.org/1999/xlink" x="0px" y="0px"
	 viewBox="0 0 1000 1000" style="enable-background:new 0 0 1000 1000;" xml:space="preserve">
<style type="text/css">
	.st0{fill:#FFFFFF;}
</style>
<path class="st0" d="M934.2,568.5v-137l-63.4-11.1c-9.8-45.7-27.8-88.4-52.4-126.4l37-52.7l-96.9-96.9l-52.7,37
	c-38-24.6-80.7-42.6-126.4-52.4l-11.1-63.4h-137l-11.1,63.4c-45.7,9.8-88.4,27.8-126.4,52.4l-52.7-37l-96.9,96.9l37,52.7
	c-24.6,38-42.6,80.7-52.4,126.4l-63.4,11.1v137l63.4,11.1c9.8,45.7,27.8,88.4,52.4,126.4l-37,52.7l96.9,96.9l52.7-37
	c38,24.6,80.7,42.6,126.4,52.4l11.1,63.4h137l11.1-63.4c45.7-9.8,88.4-27.8,126.4-52.4l52.7,37l96.9-96.9l-37-52.7
	c24.6-38,42.6-80.7,52.4-126.4L934.2,568.5z M500,757c-141.9,0-257-115.1-257-257s115.1-257,257-257s257,115.1,257,257
	S641.9,757,500,757z"/>
</svg>
